<svg xmlns="http://www.w3.org/2000/svg" viewBox="0 0 245.89 214.84" role="img" aria-labelledby="title desc">
  <title id="title">河南地图</title>
  <desc id="desc">用于旅迹系统省份聚焦展示的河南矢量地图。</desc>
  <defs>
    <filter id="outerGlow" x="-10%" y="-10%" width="120%" height="120%">
      <feDropShadow dx="0" dy="0" stdDeviation="5" flood-color="#8f8ada" flood-opacity="0.55"/>
    </filter>
  </defs>
  <style>
    .province-shadow { fill: #ffffff; stroke: #8f8ada; stroke-width: 4.8; filter: url(#outerGlow); }
    .province-line { fill: #ffffff; stroke: #bdbdbd; stroke-width: 1.05; }
    .province-label { font: 500 18px 'Microsoft YaHei', sans-serif; fill: #434343; text-anchor: middle; dominant-baseline: middle; }
  </style>
  <rect width="245.89" height="214.84" fill="#ffffff"/>
  <path class="province-shadow" d="M 63.94 124.09 L 63.54 124.29 L 63.65 123.95 L 63.92 123.81 L 63.99 123.92 L 63.94 124.09 Z M 130.09 48.87 L 130.96 48.98 L 131.13 48.42 L 131.84 48.42 L 132.48 49.14 L 132.53 49.43 L 133.05 49.3 L 133.22 48.86 L 133.61 48.74 L 133.46 48.52 L 133.63 48.41 L 133.75 48.5 L 133.93 49.06 L 134.14 49.29 L 134.33 49.28 L 134.51 49.04 L 134.45 48.78 L 134.28 48.64 L 134.05 48.42 L 134.2 48.33 L 134.85 48.57 L 135.22 48.54 L 135.28 49.28 L 135.63 49.93 L 135.95 50.24 L 136.32 50.41 L 136.83 50.52 L 138.01 50.27 L 139.33 50.91 L 139.88 50.53 L 140.48 50.9 L 140.75 50.63 L 140.96 50.63 L 141.75 51.07 L 142.22 51.02 L 142.73 51.18 L 143.22 51.34 L 143.89 51.63 L 144.43 51.56 L 144.65 52.01 L 145.07 52.09 L 145.67 52.12 L 146.31 52.71 L 147.51 52.9 L 148.63 53.92 L 148.96 54.05 L 149.76 53.94 L 150.81 53.63 L 152.47 53.44 L 152.77 53.52 L 153.0 53.75 L 153.27 53.88 L 155.73 53.64 L 156.18 53.7 L 156.6 54.57 L 156.16 55.47 L 156.33 55.74 L 156.71 55.81 L 156.82 55.6 L 157.21 55.3 L 158.12 55.26 L 158.87 55.11 L 158.71 55.04 L 158.64 54.98 L 158.73 54.84 L 159.21 54.73 L 159.14 54.52 L 159.55 54.5 L 159.5 54.26 L 159.71 54.18 L 159.7 53.27 L 159.92 52.86 L 160.13 52.73 L 161.14 52.82 L 161.19 52.34 L 161.5 51.93 L 162.05 51.94 L 162.51 52.34 L 163.7 52.13 L 164.39 52.41 L 164.74 52.71 L 165.15 53.66 L 165.6 53.73 L 165.71 53.85 L 165.66 54.37 L 165.81 54.65 L 166.37 54.84 L 166.73 54.84 L 167.18 54.66 L 167.85 53.76 L 168.2 53.67 L 168.74 53.77 L 169.0 53.69 L 169.93 52.87 L 170.12 53.89 L 169.29 55.23 L 169.15 56.59 L 168.88 56.91 L 168.45 56.99 L 168.04 57.24 L 167.27 57.45 L 166.97 57.71 L 166.94 58.17 L 167.26 59.07 L 167.13 59.43 L 166.75 59.81 L 166.55 60.29 L 166.47 61.2 L 166.57 61.57 L 166.78 61.72 L 167.13 62.04 L 168.17 61.43 L 168.93 60.45 L 169.79 59.9 L 170.81 59.44 L 171.6 59.35 L 172.6 58.69 L 173.67 58.7 L 174.02 58.56 L 174.03 58.56 L 174.75 58.25 L 175.01 57.78 L 175.54 57.61 L 176.0 57.64 L 176.49 57.52 L 177.8 56.67 L 178.41 56.56 L 178.99 56.75 L 179.87 56.31 L 180.71 56.29 L 181.08 56.03 L 182.42 55.67 L 182.9 55.4 L 183.83 54.41 L 184.69 54.28 L 184.5 54.99 L 184.12 55.57 L 184.15 55.98 L 184.06 56.3 L 183.82 56.24 L 183.52 57.33 L 183.43 57.59 L 183.26 57.68 L 182.0 57.5 L 180.31 57.81 L 180.13 58.06 L 180.08 58.61 L 179.27 58.95 L 179.29 59.08 L 179.58 59.08 L 179.68 59.36 L 179.38 60.12 L 179.07 60.33 L 178.53 60.36 L 178.52 60.53 L 178.05 60.41 L 177.94 60.63 L 176.92 60.39 L 176.62 60.78 L 175.99 60.91 L 175.8 61.34 L 175.54 61.36 L 175.54 61.64 L 175.24 61.57 L 174.99 62.85 L 174.32 62.85 L 173.23 63.15 L 172.53 63.2 L 172.53 63.46 L 171.82 63.28 L 171.8 63.43 L 170.65 63.47 L 170.45 63.78 L 169.89 64.08 L 169.67 64.64 L 169.29 64.66 L 169.58 64.83 L 168.53 65.08 L 169.19 65.24 L 168.79 65.32 L 168.71 65.47 L 168.67 65.77 L 168.81 65.77 L 168.91 65.91 L 168.7 65.97 L 168.24 65.83 L 168.14 66.58 L 167.47 67.09 L 167.24 67.05 L 166.94 67.23 L 166.98 67.58 L 166.76 67.59 L 166.71 67.69 L 167.2 67.89 L 166.83 68.11 L 166.99 68.79 L 166.9 68.94 L 166.24 69.15 L 165.73 69.52 L 165.62 69.48 L 165.33 69.66 L 164.95 69.6 L 164.8 69.71 L 164.84 69.87 L 164.74 70.04 L 164.08 70.64 L 163.1 70.77 L 162.4 70.51 L 161.73 70.54 L 161.62 70.6 L 161.58 71.25 L 161.4 71.29 L 161.38 70.63 L 161.19 70.74 L 161.26 71.23 L 160.8 70.99 L 160.75 70.83 L 160.63 70.86 L 160.49 70.96 L 160.56 71.37 L 160.25 71.72 L 159.28 71.77 L 159.0 71.92 L 158.9 72.13 L 158.99 72.8 L 159.03 73.01 L 158.9 73.01 L 158.85 72.81 L 158.46 73.3 L 157.7 73.9 L 157.74 74.22 L 156.91 74.88 L 156.87 76.04 L 155.61 76.18 L 155.21 76.38 L 154.89 76.7 L 154.87 77.04 L 155.6 77.86 L 155.77 78.21 L 155.49 78.66 L 154.21 78.93 L 154.16 79.09 L 154.26 79.58 L 154.54 79.71 L 154.97 79.72 L 155.05 79.83 L 154.99 80.03 L 154.66 80.28 L 154.08 80.45 L 154.01 80.45 L 155.09 80.69 L 155.37 80.17 L 155.57 80.12 L 155.74 80.19 L 155.68 80.78 L 156.3 80.97 L 156.27 81.27 L 156.78 81.45 L 157.16 80.98 L 157.46 80.85 L 158.7 81.01 L 158.74 81.26 L 159.18 81.48 L 159.32 81.46 L 159.3 81.2 L 159.76 81.08 L 159.92 80.84 L 160.57 80.85 L 161.13 80.6 L 161.53 80.56 L 161.68 80.7 L 161.65 80.85 L 161.63 81.17 L 162.03 81.33 L 162.24 81.69 L 162.91 81.67 L 163.07 81.85 L 163.38 81.68 L 163.63 81.67 L 163.85 81.83 L 163.79 82.01 L 163.07 82.52 L 163.01 82.74 L 163.64 83.01 L 164.15 82.75 L 164.57 82.88 L 164.6 83.06 L 164.13 83.48 L 164.11 83.82 L 164.33 84.46 L 164.68 84.54 L 164.9 84.43 L 164.86 84.18 L 165.03 84.1 L 165.5 84.27 L 165.57 84.02 L 166.04 84.0 L 166.32 84.25 L 166.59 84.32 L 166.97 84.62 L 167.35 84.7 L 167.42 84.81 L 168.05 84.71 L 168.48 85.28 L 168.77 85.39 L 168.7 85.79 L 169.06 86.21 L 169.09 86.53 L 169.25 86.81 L 169.09 87.0 L 168.7 87.08 L 168.69 87.24 L 169.16 87.6 L 169.08 87.85 L 169.29 87.9 L 169.1 88.76 L 169.31 88.78 L 169.62 89.29 L 170.77 90.53 L 171.33 90.75 L 172.37 90.83 L 173.25 90.72 L 174.66 91.17 L 174.9 91.0 L 175.02 90.74 L 175.01 90.35 L 175.19 90.16 L 175.64 90.37 L 177.14 90.65 L 177.56 90.85 L 177.6 90.86 L 178.31 91.11 L 178.44 90.87 L 180.36 90.73 L 181.23 90.49 L 181.72 90.49 L 181.91 90.39 L 181.92 89.98 L 182.06 89.71 L 182.43 89.66 L 183.25 90.39 L 183.66 90.34 L 184.32 90.03 L 184.76 90.09 L 185.16 90.47 L 185.55 91.19 L 185.9 91.26 L 186.91 90.74 L 187.05 91.12 L 186.9 91.76 L 187.12 92.25 L 186.67 92.42 L 186.16 93.43 L 186.52 93.92 L 186.62 94.26 L 186.79 94.34 L 187.24 94.61 L 187.5 94.91 L 187.52 95.09 L 187.35 95.22 L 187.44 95.41 L 187.98 95.58 L 188.79 95.63 L 189.13 95.81 L 189.54 96.37 L 191.01 96.97 L 191.24 97.51 L 191.01 98.02 L 191.16 98.06 L 191.62 97.86 L 192.32 97.97 L 192.96 97.54 L 193.14 97.69 L 193.22 98.07 L 193.46 98.06 L 194.03 97.58 L 194.34 97.45 L 195.85 97.74 L 196.16 97.94 L 196.05 98.25 L 195.3 98.92 L 195.26 99.22 L 195.38 99.49 L 195.84 99.92 L 195.93 100.27 L 195.74 100.54 L 195.36 100.67 L 195.13 100.91 L 194.92 101.75 L 195.08 102.01 L 195.51 102.1 L 195.81 102.33 L 195.88 102.7 L 196.2 103.24 L 196.5 103.5 L 196.61 104.01 L 196.71 104.34 L 197.57 104.82 L 197.79 105.14 L 197.89 105.4 L 197.6 105.72 L 197.74 106.18 L 197.57 106.48 L 197.68 106.96 L 197.63 107.12 L 197.3 107.16 L 196.33 106.71 L 195.8 106.71 L 195.66 106.85 L 195.57 107.2 L 195.38 107.28 L 194.91 107.23 L 194.77 107.58 L 194.39 107.55 L 194.3 107.76 L 193.75 107.73 L 192.88 108.01 L 192.67 108.2 L 192.62 108.4 L 192.58 108.74 L 192.73 109.17 L 191.96 109.27 L 191.67 109.53 L 191.26 109.73 L 190.3 109.86 L 189.86 110.28 L 189.05 110.5 L 188.64 110.94 L 187.84 110.93 L 187.05 111.05 L 186.57 111.41 L 186.32 111.46 L 186.05 111.42 L 185.63 110.7 L 185.18 110.55 L 184.97 110.32 L 184.65 110.17 L 184.56 109.79 L 184.1 109.64 L 183.8 109.0 L 183.44 108.51 L 183.77 107.77 L 183.36 107.64 L 182.75 107.04 L 182.58 107.07 L 182.52 106.8 L 182.06 106.84 L 181.94 106.67 L 182.36 105.34 L 181.88 104.71 L 181.35 104.32 L 180.65 104.32 L 180.08 104.27 L 179.86 103.82 L 179.56 103.73 L 179.26 103.98 L 179.1 104.35 L 178.78 104.39 L 178.68 104.22 L 178.67 103.77 L 177.96 103.25 L 177.84 102.82 L 177.25 102.76 L 177.11 102.72 L 176.71 102.93 L 175.96 102.62 L 175.49 102.81 L 174.89 102.79 L 174.26 103.06 L 174.02 102.95 L 173.81 103.47 L 173.65 103.61 L 172.99 103.63 L 172.82 103.73 L 172.89 104.2 L 172.54 104.63 L 172.48 105.07 L 172.11 105.77 L 171.75 107.12 L 171.58 107.28 L 171.93 107.54 L 172.23 107.41 L 172.69 107.66 L 173.42 107.36 L 173.59 107.59 L 173.58 108.4 L 173.21 109.68 L 172.93 109.83 L 172.35 109.61 L 172.02 109.81 L 172.11 110.14 L 172.76 111.05 L 172.82 112.38 L 173.58 113.73 L 173.72 114.38 L 172.23 114.56 L 171.81 115.04 L 170.13 115.12 L 169.68 114.98 L 169.43 114.76 L 168.37 115.04 L 168.27 115.77 L 168.02 116.32 L 167.42 115.93 L 167.19 115.98 L 166.76 116.35 L 166.87 117.2 L 166.76 117.52 L 166.14 117.66 L 166.02 117.88 L 166.06 118.2 L 166.45 118.88 L 166.07 119.17 L 166.06 119.44 L 166.69 119.52 L 166.86 120.03 L 167.16 120.31 L 167.19 120.53 L 167.09 120.73 L 166.76 120.93 L 166.6 121.24 L 166.65 121.92 L 166.33 122.92 L 165.64 123.56 L 165.5 124.11 L 165.5 125.08 L 164.75 125.25 L 164.41 125.03 L 164.01 125.26 L 162.93 125.45 L 162.68 125.6 L 162.43 126.15 L 162.25 126.24 L 161.21 126.37 L 159.98 126.3 L 159.6 126.1 L 159.28 126.26 L 158.96 126.04 L 158.42 125.89 L 158.27 125.75 L 158.24 125.47 L 157.82 125.22 L 158.03 124.91 L 157.62 124.65 L 156.97 124.57 L 156.79 125.01 L 156.25 125.27 L 156.04 126.25 L 156.16 126.42 L 156.42 126.67 L 156.56 127.36 L 156.86 127.84 L 156.03 128.01 L 155.99 128.33 L 155.77 128.49 L 155.69 128.71 L 155.94 128.99 L 156.46 129.09 L 156.74 129.37 L 156.95 129.81 L 157.1 129.87 L 158.65 129.73 L 159.38 130.03 L 159.42 130.27 L 159.11 130.41 L 159.27 130.54 L 160.25 130.49 L 161.03 130.77 L 161.64 130.65 L 161.86 130.75 L 161.96 131.08 L 162.41 131.61 L 163.22 131.77 L 163.3 132.14 L 162.9 132.21 L 163.1 132.55 L 163.0 132.8 L 163.39 133.31 L 162.9 133.21 L 162.82 133.29 L 162.89 133.73 L 162.8 135.82 L 162.86 136.3 L 163.24 136.22 L 163.31 136.52 L 163.59 136.45 L 163.49 136.92 L 163.17 136.8 L 163.06 136.95 L 163.18 137.19 L 162.97 137.36 L 163.26 137.42 L 163.35 137.55 L 162.94 137.75 L 163.0 137.95 L 163.23 138.11 L 164.57 138.0 L 164.88 138.09 L 165.17 138.04 L 165.25 138.13 L 165.4 138.28 L 165.73 138.18 L 165.58 138.7 L 165.75 138.98 L 166.05 138.97 L 166.05 138.68 L 166.46 138.73 L 168.23 138.45 L 168.25 139.02 L 169.04 139.14 L 168.86 139.48 L 169.52 139.79 L 169.88 139.76 L 170.04 140.16 L 170.52 140.58 L 170.78 141.52 L 171.24 141.66 L 171.51 142.09 L 171.97 142.17 L 171.67 142.37 L 171.65 142.53 L 171.97 142.46 L 172.42 142.01 L 172.76 142.0 L 173.17 142.31 L 173.51 142.38 L 173.82 142.04 L 174.03 141.96 L 174.11 142.38 L 174.26 142.35 L 174.63 141.5 L 174.51 141.04 L 174.85 141.02 L 175.09 140.9 L 174.85 140.55 L 174.99 140.34 L 175.15 140.33 L 175.81 140.74 L 176.45 140.78 L 176.74 140.12 L 177.06 140.32 L 177.1 141.04 L 178.04 140.21 L 178.38 140.18 L 178.47 140.03 L 178.42 139.63 L 179.06 139.31 L 179.86 138.37 L 180.2 138.33 L 180.57 138.57 L 180.01 138.75 L 179.34 139.2 L 179.25 139.63 L 178.61 140.04 L 178.64 140.16 L 179.2 140.14 L 179.27 140.34 L 179.51 140.5 L 179.49 140.86 L 179.15 140.98 L 179.15 141.08 L 179.68 142.17 L 179.85 143.8 L 180.08 144.41 L 179.88 145.11 L 180.4 145.73 L 180.18 146.36 L 180.15 146.9 L 180.84 148.22 L 180.79 148.68 L 180.6 149.11 L 180.56 149.65 L 180.68 150.02 L 180.92 150.11 L 180.93 150.37 L 180.59 150.76 L 180.58 151.15 L 180.4 151.54 L 180.68 152.22 L 180.51 152.42 L 180.29 153.27 L 180.47 154.06 L 180.44 154.33 L 180.24 154.73 L 179.78 155.11 L 179.8 155.84 L 180.21 156.46 L 180.22 156.91 L 180.24 157.01 L 179.92 157.08 L 179.61 157.44 L 178.92 157.48 L 178.71 157.29 L 178.43 157.53 L 178.25 157.5 L 177.93 157.85 L 177.69 157.76 L 177.64 157.53 L 177.5 157.56 L 176.79 157.24 L 176.03 157.38 L 175.93 157.72 L 175.79 157.8 L 175.27 157.68 L 174.97 157.44 L 174.7 157.36 L 173.79 158.01 L 172.14 158.98 L 171.06 159.44 L 170.38 159.9 L 170.04 160.3 L 169.95 160.57 L 170.13 161.41 L 169.05 162.0 L 168.85 162.36 L 168.66 163.17 L 167.9 163.82 L 167.5 164.05 L 167.45 164.5 L 167.74 165.3 L 167.66 165.99 L 167.35 166.35 L 166.31 166.54 L 165.9 166.84 L 165.46 166.4 L 164.86 166.62 L 164.62 166.61 L 164.54 166.01 L 164.36 165.88 L 163.79 165.88 L 163.46 165.39 L 163.66 164.95 L 163.73 163.77 L 164.14 162.76 L 163.58 162.7 L 163.16 162.51 L 162.89 162.28 L 162.64 161.7 L 162.4 161.57 L 161.96 161.53 L 161.51 161.77 L 161.62 162.1 L 161.01 162.47 L 160.95 162.66 L 161.02 163.14 L 161.24 163.34 L 160.95 163.55 L 160.7 163.59 L 160.85 163.74 L 160.79 163.86 L 159.51 163.71 L 159.2 163.39 L 159.06 163.41 L 158.7 163.99 L 158.76 164.35 L 158.43 164.78 L 158.09 164.57 L 158.05 164.23 L 157.9 164.05 L 157.6 164.15 L 157.56 164.27 L 157.12 164.56 L 157.07 164.71 L 156.61 164.49 L 155.76 164.81 L 155.62 164.79 L 155.53 164.57 L 155.2 164.55 L 154.94 164.62 L 154.92 164.8 L 154.69 165.03 L 154.48 165.07 L 154.06 164.57 L 153.59 164.57 L 153.29 164.4 L 153.35 164.11 L 153.14 164.01 L 153.13 163.75 L 153.43 163.51 L 153.33 163.44 L 153.02 163.59 L 152.73 163.4 L 152.36 163.41 L 151.87 163.63 L 151.78 163.38 L 151.29 163.48 L 151.24 163.33 L 151.37 163.13 L 151.3 162.95 L 150.67 162.96 L 150.33 162.59 L 150.35 162.42 L 150.07 162.28 L 150.05 162.11 L 149.63 161.98 L 149.37 162.02 L 149.14 162.24 L 148.89 162.26 L 148.78 162.58 L 148.39 162.62 L 148.33 162.73 L 147.99 162.65 L 148.02 162.55 L 147.74 161.18 L 147.93 160.43 L 148.2 160.15 L 148.44 159.56 L 148.72 159.34 L 148.49 159.02 L 148.66 157.87 L 148.45 157.7 L 148.3 157.71 L 147.81 157.68 L 147.9 157.86 L 147.67 158.02 L 147.69 158.18 L 147.45 158.33 L 147.13 157.93 L 147.15 157.81 L 146.95 157.68 L 146.75 157.76 L 146.7 157.95 L 146.69 158.12 L 146.84 158.23 L 146.58 158.43 L 146.44 158.26 L 146.26 158.28 L 145.85 158.37 L 145.35 158.64 L 144.7 158.54 L 144.6 158.26 L 144.35 158.15 L 144.16 158.15 L 143.94 158.32 L 142.83 157.93 L 142.58 158.03 L 141.73 157.97 L 141.26 157.57 L 140.83 156.83 L 140.41 156.42 L 140.28 156.15 L 140.31 155.93 L 140.09 156.14 L 139.95 156.14 L 139.13 155.66 L 138.8 155.64 L 138.39 155.94 L 137.8 155.93 L 137.65 156.15 L 137.65 156.52 L 137.53 156.71 L 137.15 156.89 L 136.84 157.17 L 136.2 157.31 L 135.91 157.58 L 135.12 157.66 L 134.28 157.97 L 134.06 157.82 L 133.46 156.89 L 133.43 156.2 L 133.62 155.65 L 133.05 155.04 L 132.69 155.01 L 132.57 155.09 L 132.06 155.73 L 131.45 155.86 L 131.08 155.77 L 130.87 155.55 L 130.71 155.1 L 130.69 154.69 L 130.82 154.31 L 130.06 153.78 L 130.08 153.31 L 130.36 152.93 L 129.99 152.77 L 129.36 152.69 L 128.87 152.39 L 128.91 152.09 L 129.72 151.26 L 129.43 150.96 L 129.01 150.83 L 128.15 150.06 L 128.25 149.83 L 128.06 149.18 L 128.36 149.25 L 128.54 149.5 L 128.95 149.16 L 129.1 148.95 L 128.98 148.38 L 129.53 147.74 L 129.37 147.18 L 129.07 147.3 L 128.78 147.06 L 128.46 146.34 L 128.45 146.02 L 128.74 145.87 L 128.56 145.51 L 128.63 145.2 L 128.83 145.01 L 129.27 144.93 L 129.2 144.6 L 128.91 144.47 L 128.81 144.3 L 128.84 143.88 L 129.22 143.59 L 129.2 143.34 L 129.04 143.33 L 128.95 143.48 L 128.68 143.48 L 128.56 143.31 L 128.74 143.18 L 128.77 142.87 L 128.41 142.72 L 128.33 142.25 L 128.08 142.26 L 127.77 142.28 L 127.61 142.1 L 126.76 142.14 L 126.73 142.37 L 126.5 142.28 L 125.92 143.0 L 125.8 143.59 L 125.08 143.43 L 125.33 143.8 L 125.01 143.81 L 124.71 144.04 L 124.25 144.04 L 124.18 144.41 L 124.5 144.95 L 124.04 144.91 L 123.93 144.84 L 123.78 144.35 L 123.47 144.26 L 120.97 145.62 L 120.56 145.49 L 120.12 145.06 L 119.33 145.09 L 118.57 144.5 L 118.48 144.33 L 118.85 143.99 L 118.8 143.91 L 118.18 143.84 L 117.46 143.08 L 116.54 142.58 L 116.06 141.97 L 114.97 142.04 L 114.76 142.15 L 114.39 143.06 L 113.98 143.16 L 113.78 143.1 L 113.31 142.64 L 112.32 142.51 L 111.7 142.06 L 111.51 142.01 L 111.25 142.19 L 110.89 142.21 L 110.75 142.35 L 110.65 142.58 L 110.82 142.84 L 110.67 143.0 L 110.61 143.37 L 110.02 143.24 L 110.11 142.83 L 110.03 142.79 L 109.8 142.82 L 109.75 143.08 L 109.56 143.07 L 108.59 142.73 L 108.29 142.88 L 108.29 143.12 L 108.05 143.18 L 107.8 142.69 L 107.06 143.22 L 106.31 143.34 L 105.92 143.67 L 105.54 143.6 L 105.38 143.8 L 105.42 143.89 L 105.31 143.94 L 104.9 143.95 L 104.54 143.78 L 104.59 143.6 L 104.46 143.42 L 104.13 143.52 L 104.01 143.77 L 103.37 143.65 L 102.7 143.21 L 102.37 143.25 L 102.31 143.37 L 101.26 142.94 L 101.07 143.04 L 100.78 143.02 L 100.82 142.93 L 100.64 142.72 L 100.44 142.64 L 100.33 142.72 L 100.08 142.49 L 99.82 143.02 L 99.7 143.14 L 99.61 143.09 L 99.38 142.98 L 98.96 143.1 L 98.54 143.12 L 97.64 143.72 L 96.75 143.29 L 96.29 143.22 L 95.64 143.35 L 95.11 143.73 L 94.93 144.23 L 94.79 144.36 L 94.48 144.27 L 93.66 143.67 L 93.01 143.43 L 92.67 143.11 L 92.54 142.8 L 92.39 142.9 L 92.02 142.84 L 91.93 143.0 L 91.83 143.0 L 91.8 142.74 L 91.17 142.98 L 91.23 142.66 L 91.16 142.41 L 90.59 142.34 L 90.45 142.44 L 90.57 142.57 L 90.89 142.63 L 90.71 142.72 L 90.73 142.85 L 90.93 142.98 L 90.77 143.15 L 90.62 143.08 L 90.2 142.76 L 90.16 142.56 L 89.96 142.73 L 89.29 142.19 L 88.99 142.16 L 88.91 141.81 L 88.62 141.65 L 88.71 141.19 L 88.55 140.87 L 88.16 140.86 L 87.93 140.96 L 87.62 141.35 L 87.33 141.41 L 87.2 141.42 L 87.14 141.2 L 86.47 140.61 L 85.94 139.81 L 84.46 140.14 L 84.03 139.92 L 83.79 139.46 L 83.59 139.36 L 82.92 139.41 L 81.3 138.55 L 80.43 137.73 L 79.22 137.35 L 78.66 137.69 L 78.54 137.56 L 78.57 137.23 L 78.52 137.0 L 77.99 137.17 L 77.64 137.59 L 77.02 137.99 L 76.6 137.82 L 76.03 137.33 L 75.8 136.87 L 75.8 136.54 L 75.48 136.07 L 74.58 135.56 L 74.4 135.33 L 74.48 135.17 L 74.43 135.03 L 73.64 134.89 L 73.36 134.7 L 73.39 134.62 L 73.78 134.6 L 74.21 134.74 L 74.4 134.48 L 74.5 134.08 L 74.26 133.7 L 74.11 134.04 L 73.83 133.99 L 73.86 134.19 L 73.75 134.26 L 73.12 134.17 L 72.3 132.39 L 71.15 132.1 L 70.25 131.66 L 70.16 131.53 L 70.18 130.87 L 69.93 130.59 L 69.33 131.07 L 69.21 131.07 L 69.12 130.89 L 69.21 130.36 L 69.04 129.97 L 69.29 129.37 L 69.64 129.18 L 69.78 128.98 L 69.42 128.16 L 68.99 127.84 L 69.14 127.73 L 68.96 127.44 L 68.46 127.3 L 67.76 127.41 L 67.35 127.29 L 67.02 127.45 L 66.9 127.37 L 66.9 127.14 L 67.96 126.63 L 67.79 126.11 L 67.45 126.14 L 67.46 125.59 L 67.05 125.37 L 66.73 125.39 L 66.39 125.05 L 66.27 124.52 L 66.07 124.66 L 65.6 124.11 L 65.37 123.99 L 65.24 123.96 L 64.86 124.2 L 64.57 124.61 L 64.14 124.67 L 64.32 124.34 L 64.58 124.18 L 64.73 123.92 L 64.7 123.74 L 63.68 123.14 L 62.87 122.18 L 62.94 121.27 L 63.45 121.09 L 63.44 120.93 L 63.2 120.74 L 63.27 120.6 L 63.63 120.56 L 63.94 120.34 L 63.81 119.87 L 63.89 119.38 L 63.56 118.94 L 63.54 118.62 L 63.19 117.94 L 63.76 117.58 L 63.91 117.14 L 63.85 116.22 L 63.4 115.65 L 63.29 115.37 L 63.45 114.95 L 63.34 114.46 L 63.08 114.25 L 62.39 113.95 L 62.16 113.71 L 61.62 113.44 L 60.45 113.26 L 60.08 112.68 L 59.28 112.29 L 59.12 111.9 L 59.05 111.0 L 58.87 110.74 L 58.54 109.89 L 58.14 109.59 L 57.97 109.26 L 56.93 109.21 L 56.24 108.39 L 55.18 107.95 L 54.56 108.13 L 54.35 108.07 L 53.94 107.89 L 53.81 107.56 L 53.58 107.18 L 53.66 106.88 L 53.77 106.75 L 54.33 106.63 L 54.39 106.18 L 55.36 105.93 L 55.57 105.63 L 55.49 105.42 L 54.92 105.04 L 54.86 104.43 L 54.67 104.35 L 54.26 103.83 L 53.61 103.94 L 53.41 103.74 L 53.32 103.0 L 53.57 102.65 L 53.45 102.1 L 54.44 101.38 L 54.45 101.17 L 54.78 100.68 L 54.74 100.42 L 54.55 100.34 L 53.86 100.22 L 53.33 99.87 L 52.84 99.87 L 52.26 99.31 L 51.53 99.26 L 50.99 98.86 L 50.15 98.76 L 49.98 98.66 L 49.57 97.83 L 49.65 97.66 L 50.2 97.52 L 50.58 97.02 L 51.05 96.84 L 51.37 96.52 L 51.25 96.05 L 50.84 95.52 L 50.99 94.84 L 50.9 94.65 L 50.23 94.81 L 49.69 94.76 L 49.2 94.3 L 49.04 93.73 L 48.14 92.42 L 48.05 92.16 L 48.0 91.8 L 48.76 91.35 L 48.99 91.32 L 49.06 91.17 L 49.06 91.04 L 48.6 91.15 L 48.13 91.03 L 48.27 90.75 L 48.33 90.23 L 48.9 90.5 L 49.18 90.53 L 49.92 90.24 L 50.63 89.79 L 52.16 90.63 L 54.0 89.95 L 54.99 90.42 L 55.38 90.49 L 55.56 90.41 L 55.87 89.88 L 56.17 90.06 L 56.57 89.49 L 57.27 88.93 L 57.69 88.91 L 58.02 89.04 L 58.96 89.63 L 59.28 89.48 L 59.53 89.18 L 59.96 89.24 L 60.6 88.74 L 60.96 88.23 L 61.12 87.88 L 61.18 87.06 L 61.95 87.08 L 62.18 87.3 L 62.27 87.67 L 62.45 87.76 L 63.91 86.94 L 64.43 86.7 L 65.16 86.74 L 65.63 86.59 L 66.56 85.69 L 66.83 85.37 L 67.24 85.26 L 68.04 85.38 L 68.66 85.68 L 69.38 85.15 L 69.78 85.28 L 70.57 85.16 L 71.33 84.78 L 72.0 85.1 L 72.46 85.14 L 72.76 85.05 L 73.77 84.61 L 74.05 84.61 L 74.31 84.76 L 75.14 84.72 L 76.14 84.13 L 76.76 84.32 L 76.9 84.33 L 77.2 84.02 L 77.48 83.38 L 77.85 83.24 L 78.16 82.57 L 78.4 82.38 L 78.66 82.18 L 79.34 81.93 L 79.38 81.55 L 79.23 81.05 L 79.3 80.94 L 79.69 80.91 L 81.0 80.39 L 81.52 80.31 L 81.91 80.0 L 82.39 79.99 L 82.68 79.16 L 82.98 79.0 L 86.01 78.78 L 86.52 79.05 L 87.41 79.14 L 87.75 79.54 L 87.91 79.9 L 88.43 79.52 L 88.54 79.19 L 88.37 78.66 L 88.64 77.4 L 88.66 76.71 L 88.2 76.43 L 88.15 76.28 L 88.3 76.03 L 88.78 75.68 L 88.93 75.27 L 88.47 74.4 L 88.48 74.08 L 88.67 73.99 L 89.55 74.29 L 90.15 74.24 L 91.66 74.62 L 92.05 74.61 L 91.96 75.01 L 92.24 75.21 L 93.11 75.01 L 93.91 74.67 L 94.1 74.86 L 93.87 75.43 L 94.03 75.53 L 95.61 75.47 L 96.0 75.27 L 96.39 74.86 L 96.57 74.83 L 97.86 75.33 L 98.94 75.3 L 99.18 75.49 L 99.8 75.41 L 100.19 75.64 L 100.51 75.7 L 100.69 75.45 L 101.8 75.46 L 102.0 75.21 L 102.28 75.21 L 102.33 75.02 L 101.84 74.9 L 101.75 74.71 L 102.01 74.26 L 102.28 74.58 L 102.55 74.58 L 102.61 74.82 L 102.91 75.04 L 103.3 75.17 L 103.64 75.55 L 103.88 75.56 L 103.79 75.87 L 103.92 76.27 L 104.02 76.24 L 104.14 75.85 L 104.34 75.71 L 105.12 75.87 L 105.59 75.44 L 105.59 75.0 L 105.89 74.91 L 106.03 75.07 L 106.24 75.05 L 106.52 74.67 L 107.06 74.63 L 107.71 74.88 L 108.27 74.96 L 109.17 74.77 L 109.36 74.44 L 109.5 73.84 L 110.62 73.77 L 110.87 73.47 L 110.61 73.24 L 110.72 72.34 L 111.22 72.13 L 111.61 72.07 L 112.79 72.49 L 113.23 72.75 L 113.68 72.77 L 114.04 72.45 L 114.22 72.38 L 114.3 72.21 L 114.34 71.92 L 114.89 71.37 L 114.86 70.87 L 115.23 70.91 L 115.36 70.65 L 115.86 70.2 L 116.66 70.12 L 118.02 70.6 L 118.1 70.5 L 117.92 70.21 L 118.11 69.91 L 117.98 69.62 L 118.04 69.36 L 119.23 69.43 L 119.67 69.23 L 119.93 68.95 L 120.41 68.55 L 121.54 68.6 L 122.72 68.09 L 122.95 67.65 L 122.95 67.24 L 123.5 66.72 L 123.9 66.02 L 123.98 65.82 L 123.91 65.48 L 124.0 65.3 L 124.29 65.29 L 125.23 65.72 L 125.46 65.72 L 125.77 65.56 L 125.61 64.96 L 125.32 64.54 L 125.32 64.11 L 124.89 63.17 L 124.86 63.0 L 125.08 62.64 L 125.16 62.26 L 124.61 61.36 L 124.65 61.15 L 124.85 61.04 L 125.4 61.06 L 125.74 60.91 L 126.16 61.13 L 126.49 60.94 L 126.53 60.79 L 126.13 60.24 L 126.07 60.0 L 126.47 58.88 L 126.31 57.75 L 126.05 57.48 L 126.08 57.18 L 126.21 57.08 L 127.05 57.24 L 127.23 57.23 L 127.44 57.01 L 127.35 56.76 L 127.1 56.55 L 127.53 56.37 L 127.44 56.27 L 126.85 56.2 L 126.61 56.08 L 126.64 55.88 L 127.17 55.54 L 127.19 55.38 L 126.89 54.92 L 126.82 54.54 L 126.51 54.37 L 126.63 54.24 L 126.88 54.21 L 126.45 53.97 L 126.68 53.68 L 127.2 53.91 L 127.65 53.78 L 127.64 53.36 L 127.51 53.27 L 127.12 53.29 L 126.96 53.07 L 126.54 52.96 L 126.66 52.67 L 127.49 52.58 L 127.52 52.43 L 126.89 52.14 L 127.43 52.08 L 127.61 51.93 L 127.18 51.66 L 127.48 51.3 L 127.52 51.07 L 127.42 50.88 L 127.69 50.59 L 127.76 49.86 L 128.15 49.63 L 128.42 49.18 L 128.24 48.78 L 128.28 48.33 L 128.57 48.25 L 128.83 48.0 L 130.09 48.87 Z M 128.91 145.55 L 129.17 145.69 L 129.32 145.43 L 129.0 145.15 L 128.88 145.23 L 128.91 145.55 Z" />
  <path class="province-line" d="M 63.94 124.09 L 63.54 124.29 L 63.65 123.95 L 63.92 123.81 L 63.99 123.92 L 63.94 124.09 Z M 130.09 48.87 L 130.96 48.98 L 131.13 48.42 L 131.84 48.42 L 132.48 49.14 L 132.53 49.43 L 133.05 49.3 L 133.22 48.86 L 133.61 48.74 L 133.46 48.52 L 133.63 48.41 L 133.75 48.5 L 133.93 49.06 L 134.14 49.29 L 134.33 49.28 L 134.51 49.04 L 134.45 48.78 L 134.28 48.64 L 134.05 48.42 L 134.2 48.33 L 134.85 48.57 L 135.22 48.54 L 135.28 49.28 L 135.63 49.93 L 135.95 50.24 L 136.32 50.41 L 136.83 50.52 L 138.01 50.27 L 139.33 50.91 L 139.88 50.53 L 140.48 50.9 L 140.75 50.63 L 140.96 50.63 L 141.75 51.07 L 142.22 51.02 L 142.73 51.18 L 143.22 51.34 L 143.89 51.63 L 144.43 51.56 L 144.65 52.01 L 145.07 52.09 L 145.67 52.12 L 146.31 52.71 L 147.51 52.9 L 148.63 53.92 L 148.96 54.05 L 149.76 53.94 L 150.81 53.63 L 152.47 53.44 L 152.77 53.52 L 153.0 53.75 L 153.27 53.88 L 155.73 53.64 L 156.18 53.7 L 156.6 54.57 L 156.16 55.47 L 156.33 55.74 L 156.71 55.81 L 156.82 55.6 L 157.21 55.3 L 158.12 55.26 L 158.87 55.11 L 158.71 55.04 L 158.64 54.98 L 158.73 54.84 L 159.21 54.73 L 159.14 54.52 L 159.55 54.5 L 159.5 54.26 L 159.71 54.18 L 159.7 53.27 L 159.92 52.86 L 160.13 52.73 L 161.14 52.82 L 161.19 52.34 L 161.5 51.93 L 162.05 51.94 L 162.51 52.34 L 163.7 52.13 L 164.39 52.41 L 164.74 52.71 L 165.15 53.66 L 165.6 53.73 L 165.71 53.85 L 165.66 54.37 L 165.81 54.65 L 166.37 54.84 L 166.73 54.84 L 167.18 54.66 L 167.85 53.76 L 168.2 53.67 L 168.74 53.77 L 169.0 53.69 L 169.93 52.87 L 170.12 53.89 L 169.29 55.23 L 169.15 56.59 L 168.88 56.91 L 168.45 56.99 L 168.04 57.24 L 167.27 57.45 L 166.97 57.71 L 166.94 58.17 L 167.26 59.07 L 167.13 59.43 L 166.75 59.81 L 166.55 60.29 L 166.47 61.2 L 166.57 61.57 L 166.78 61.72 L 167.13 62.04 L 168.17 61.43 L 168.93 60.45 L 169.79 59.9 L 170.81 59.44 L 171.6 59.35 L 172.6 58.69 L 173.67 58.7 L 174.02 58.56 L 174.03 58.56 L 174.75 58.25 L 175.01 57.78 L 175.54 57.61 L 176.0 57.64 L 176.49 57.52 L 177.8 56.67 L 178.41 56.56 L 178.99 56.75 L 179.87 56.31 L 180.71 56.29 L 181.08 56.03 L 182.42 55.67 L 182.9 55.4 L 183.83 54.41 L 184.69 54.28 L 184.5 54.99 L 184.12 55.57 L 184.15 55.98 L 184.06 56.3 L 183.82 56.24 L 183.52 57.33 L 183.43 57.59 L 183.26 57.68 L 182.0 57.5 L 180.31 57.81 L 180.13 58.06 L 180.08 58.61 L 179.27 58.95 L 179.29 59.08 L 179.58 59.08 L 179.68 59.36 L 179.38 60.12 L 179.07 60.33 L 178.53 60.36 L 178.52 60.53 L 178.05 60.41 L 177.94 60.63 L 176.92 60.39 L 176.62 60.78 L 175.99 60.91 L 175.8 61.34 L 175.54 61.36 L 175.54 61.64 L 175.24 61.57 L 174.99 62.85 L 174.32 62.85 L 173.23 63.15 L 172.53 63.2 L 172.53 63.46 L 171.82 63.28 L 171.8 63.43 L 170.65 63.47 L 170.45 63.78 L 169.89 64.08 L 169.67 64.64 L 169.29 64.66 L 169.58 64.83 L 168.53 65.08 L 169.19 65.24 L 168.79 65.32 L 168.71 65.47 L 168.67 65.77 L 168.81 65.77 L 168.91 65.91 L 168.7 65.97 L 168.24 65.83 L 168.14 66.58 L 167.47 67.09 L 167.24 67.05 L 166.94 67.23 L 166.98 67.58 L 166.76 67.59 L 166.71 67.69 L 167.2 67.89 L 166.83 68.11 L 166.99 68.79 L 166.9 68.94 L 166.24 69.15 L 165.73 69.52 L 165.62 69.48 L 165.33 69.66 L 164.95 69.6 L 164.8 69.71 L 164.84 69.87 L 164.74 70.04 L 164.08 70.64 L 163.1 70.77 L 162.4 70.51 L 161.73 70.54 L 161.62 70.6 L 161.58 71.25 L 161.4 71.29 L 161.38 70.63 L 161.19 70.74 L 161.26 71.23 L 160.8 70.99 L 160.75 70.83 L 160.63 70.86 L 160.49 70.96 L 160.56 71.37 L 160.25 71.72 L 159.28 71.77 L 159.0 71.92 L 158.9 72.13 L 158.99 72.8 L 159.03 73.01 L 158.9 73.01 L 158.85 72.81 L 158.46 73.3 L 157.7 73.9 L 157.74 74.22 L 156.91 74.88 L 156.87 76.04 L 155.61 76.18 L 155.21 76.38 L 154.89 76.7 L 154.87 77.04 L 155.6 77.86 L 155.77 78.21 L 155.49 78.66 L 154.21 78.93 L 154.16 79.09 L 154.26 79.58 L 154.54 79.71 L 154.97 79.72 L 155.05 79.83 L 154.99 80.03 L 154.66 80.28 L 154.08 80.45 L 154.01 80.45 L 155.09 80.69 L 155.37 80.17 L 155.57 80.12 L 155.74 80.19 L 155.68 80.78 L 156.3 80.97 L 156.27 81.27 L 156.78 81.45 L 157.16 80.98 L 157.46 80.85 L 158.7 81.01 L 158.74 81.26 L 159.18 81.48 L 159.32 81.46 L 159.3 81.2 L 159.76 81.08 L 159.92 80.84 L 160.57 80.85 L 161.13 80.6 L 161.53 80.56 L 161.68 80.7 L 161.65 80.85 L 161.63 81.17 L 162.03 81.33 L 162.24 81.69 L 162.91 81.67 L 163.07 81.85 L 163.38 81.68 L 163.63 81.67 L 163.85 81.83 L 163.79 82.01 L 163.07 82.52 L 163.01 82.74 L 163.64 83.01 L 164.15 82.75 L 164.57 82.88 L 164.6 83.06 L 164.13 83.48 L 164.11 83.82 L 164.33 84.46 L 164.68 84.54 L 164.9 84.43 L 164.86 84.18 L 165.03 84.1 L 165.5 84.27 L 165.57 84.02 L 166.04 84.0 L 166.32 84.25 L 166.59 84.32 L 166.97 84.62 L 167.35 84.7 L 167.42 84.81 L 168.05 84.71 L 168.48 85.28 L 168.77 85.39 L 168.7 85.79 L 169.06 86.21 L 169.09 86.53 L 169.25 86.81 L 169.09 87.0 L 168.7 87.08 L 168.69 87.24 L 169.16 87.6 L 169.08 87.85 L 169.29 87.9 L 169.1 88.76 L 169.31 88.78 L 169.62 89.29 L 170.77 90.53 L 171.33 90.75 L 172.37 90.83 L 173.25 90.72 L 174.66 91.17 L 174.9 91.0 L 175.02 90.74 L 175.01 90.35 L 175.19 90.16 L 175.64 90.37 L 177.14 90.65 L 177.56 90.85 L 177.6 90.86 L 178.31 91.11 L 178.44 90.87 L 180.36 90.73 L 181.23 90.49 L 181.72 90.49 L 181.91 90.39 L 181.92 89.98 L 182.06 89.71 L 182.43 89.66 L 183.25 90.39 L 183.66 90.34 L 184.32 90.03 L 184.76 90.09 L 185.16 90.47 L 185.55 91.19 L 185.9 91.26 L 186.91 90.74 L 187.05 91.12 L 186.9 91.76 L 187.12 92.25 L 186.67 92.42 L 186.16 93.43 L 186.52 93.92 L 186.62 94.26 L 186.79 94.34 L 187.24 94.61 L 187.5 94.91 L 187.52 95.09 L 187.35 95.22 L 187.44 95.41 L 187.98 95.58 L 188.79 95.63 L 189.13 95.81 L 189.54 96.37 L 191.01 96.97 L 191.24 97.51 L 191.01 98.02 L 191.16 98.06 L 191.62 97.86 L 192.32 97.97 L 192.96 97.54 L 193.14 97.69 L 193.22 98.07 L 193.46 98.06 L 194.03 97.58 L 194.34 97.45 L 195.85 97.74 L 196.16 97.94 L 196.05 98.25 L 195.3 98.92 L 195.26 99.22 L 195.38 99.49 L 195.84 99.92 L 195.93 100.27 L 195.74 100.54 L 195.36 100.67 L 195.13 100.91 L 194.92 101.75 L 195.08 102.01 L 195.51 102.1 L 195.81 102.33 L 195.88 102.7 L 196.2 103.24 L 196.5 103.5 L 196.61 104.01 L 196.71 104.34 L 197.57 104.82 L 197.79 105.14 L 197.89 105.4 L 197.6 105.72 L 197.74 106.18 L 197.57 106.48 L 197.68 106.96 L 197.63 107.12 L 197.3 107.16 L 196.33 106.71 L 195.8 106.71 L 195.66 106.85 L 195.57 107.2 L 195.38 107.28 L 194.91 107.23 L 194.77 107.58 L 194.39 107.55 L 194.3 107.76 L 193.75 107.73 L 192.88 108.01 L 192.67 108.2 L 192.62 108.4 L 192.58 108.74 L 192.73 109.17 L 191.96 109.27 L 191.67 109.53 L 191.26 109.73 L 190.3 109.86 L 189.86 110.28 L 189.05 110.5 L 188.64 110.94 L 187.84 110.93 L 187.05 111.05 L 186.57 111.41 L 186.32 111.46 L 186.05 111.42 L 185.63 110.7 L 185.18 110.55 L 184.97 110.32 L 184.65 110.17 L 184.56 109.79 L 184.1 109.64 L 183.8 109.0 L 183.44 108.51 L 183.77 107.77 L 183.36 107.64 L 182.75 107.04 L 182.58 107.07 L 182.52 106.8 L 182.06 106.84 L 181.94 106.67 L 182.36 105.34 L 181.88 104.71 L 181.35 104.32 L 180.65 104.32 L 180.08 104.27 L 179.86 103.82 L 179.56 103.73 L 179.26 103.98 L 179.1 104.35 L 178.78 104.39 L 178.68 104.22 L 178.67 103.77 L 177.96 103.25 L 177.84 102.82 L 177.25 102.76 L 177.11 102.72 L 176.71 102.93 L 175.96 102.62 L 175.49 102.81 L 174.89 102.79 L 174.26 103.06 L 174.02 102.95 L 173.81 103.47 L 173.65 103.61 L 172.99 103.63 L 172.82 103.73 L 172.89 104.2 L 172.54 104.63 L 172.48 105.07 L 172.11 105.77 L 171.75 107.12 L 171.58 107.28 L 171.93 107.54 L 172.23 107.41 L 172.69 107.66 L 173.42 107.36 L 173.59 107.59 L 173.58 108.4 L 173.21 109.68 L 172.93 109.83 L 172.35 109.61 L 172.02 109.81 L 172.11 110.14 L 172.76 111.05 L 172.82 112.38 L 173.58 113.73 L 173.72 114.38 L 172.23 114.56 L 171.81 115.04 L 170.13 115.12 L 169.68 114.98 L 169.43 114.76 L 168.37 115.04 L 168.27 115.77 L 168.02 116.32 L 167.42 115.93 L 167.19 115.98 L 166.76 116.35 L 166.87 117.2 L 166.76 117.52 L 166.14 117.66 L 166.02 117.88 L 166.06 118.2 L 166.45 118.88 L 166.07 119.17 L 166.06 119.44 L 166.69 119.52 L 166.86 120.03 L 167.16 120.31 L 167.19 120.53 L 167.09 120.73 L 166.76 120.93 L 166.6 121.24 L 166.65 121.92 L 166.33 122.92 L 165.64 123.56 L 165.5 124.11 L 165.5 125.08 L 164.75 125.25 L 164.41 125.03 L 164.01 125.26 L 162.93 125.45 L 162.68 125.6 L 162.43 126.15 L 162.25 126.24 L 161.21 126.37 L 159.98 126.3 L 159.6 126.1 L 159.28 126.26 L 158.96 126.04 L 158.42 125.89 L 158.27 125.75 L 158.24 125.47 L 157.82 125.22 L 158.03 124.91 L 157.62 124.65 L 156.97 124.57 L 156.79 125.01 L 156.25 125.27 L 156.04 126.25 L 156.16 126.42 L 156.42 126.67 L 156.56 127.36 L 156.86 127.84 L 156.03 128.01 L 155.99 128.33 L 155.77 128.49 L 155.69 128.71 L 155.94 128.99 L 156.46 129.09 L 156.74 129.37 L 156.95 129.81 L 157.1 129.87 L 158.65 129.73 L 159.38 130.03 L 159.42 130.27 L 159.11 130.41 L 159.27 130.54 L 160.25 130.49 L 161.03 130.77 L 161.64 130.65 L 161.86 130.75 L 161.96 131.08 L 162.41 131.61 L 163.22 131.77 L 163.3 132.14 L 162.9 132.21 L 163.1 132.55 L 163.0 132.8 L 163.39 133.31 L 162.9 133.21 L 162.82 133.29 L 162.89 133.73 L 162.8 135.82 L 162.86 136.3 L 163.24 136.22 L 163.31 136.52 L 163.59 136.45 L 163.49 136.92 L 163.17 136.8 L 163.06 136.95 L 163.18 137.19 L 162.97 137.36 L 163.26 137.42 L 163.35 137.55 L 162.94 137.75 L 163.0 137.95 L 163.23 138.11 L 164.57 138.0 L 164.88 138.09 L 165.17 138.04 L 165.25 138.13 L 165.4 138.28 L 165.73 138.18 L 165.58 138.7 L 165.75 138.98 L 166.05 138.97 L 166.05 138.68 L 166.46 138.73 L 168.23 138.45 L 168.25 139.02 L 169.04 139.14 L 168.86 139.48 L 169.52 139.79 L 169.88 139.76 L 170.04 140.16 L 170.52 140.58 L 170.78 141.52 L 171.24 141.66 L 171.51 142.09 L 171.97 142.17 L 171.67 142.37 L 171.65 142.53 L 171.97 142.46 L 172.42 142.01 L 172.76 142.0 L 173.17 142.31 L 173.51 142.38 L 173.82 142.04 L 174.03 141.96 L 174.11 142.38 L 174.26 142.35 L 174.63 141.5 L 174.51 141.04 L 174.85 141.02 L 175.09 140.9 L 174.85 140.55 L 174.99 140.34 L 175.15 140.33 L 175.81 140.74 L 176.45 140.78 L 176.74 140.12 L 177.06 140.32 L 177.1 141.04 L 178.04 140.21 L 178.38 140.18 L 178.47 140.03 L 178.42 139.63 L 179.06 139.31 L 179.86 138.37 L 180.2 138.33 L 180.57 138.57 L 180.01 138.75 L 179.34 139.2 L 179.25 139.63 L 178.61 140.04 L 178.64 140.16 L 179.2 140.14 L 179.27 140.34 L 179.51 140.5 L 179.49 140.86 L 179.15 140.98 L 179.15 141.08 L 179.68 142.17 L 179.85 143.8 L 180.08 144.41 L 179.88 145.11 L 180.4 145.73 L 180.18 146.36 L 180.15 146.9 L 180.84 148.22 L 180.79 148.68 L 180.6 149.11 L 180.56 149.65 L 180.68 150.02 L 180.92 150.11 L 180.93 150.37 L 180.59 150.76 L 180.58 151.15 L 180.4 151.54 L 180.68 152.22 L 180.51 152.42 L 180.29 153.27 L 180.47 154.06 L 180.44 154.33 L 180.24 154.73 L 179.78 155.11 L 179.8 155.84 L 180.21 156.46 L 180.22 156.91 L 180.24 157.01 L 179.92 157.08 L 179.61 157.44 L 178.92 157.48 L 178.71 157.29 L 178.43 157.53 L 178.25 157.5 L 177.93 157.85 L 177.69 157.76 L 177.64 157.53 L 177.5 157.56 L 176.79 157.24 L 176.03 157.38 L 175.93 157.72 L 175.79 157.8 L 175.27 157.68 L 174.97 157.44 L 174.7 157.36 L 173.79 158.01 L 172.14 158.98 L 171.06 159.44 L 170.38 159.9 L 170.04 160.3 L 169.95 160.57 L 170.13 161.41 L 169.05 162.0 L 168.85 162.36 L 168.66 163.17 L 167.9 163.82 L 167.5 164.05 L 167.45 164.5 L 167.74 165.3 L 167.66 165.99 L 167.35 166.35 L 166.31 166.54 L 165.9 166.84 L 165.46 166.4 L 164.86 166.62 L 164.62 166.61 L 164.54 166.01 L 164.36 165.88 L 163.79 165.88 L 163.46 165.39 L 163.66 164.95 L 163.73 163.77 L 164.14 162.76 L 163.58 162.7 L 163.16 162.51 L 162.89 162.28 L 162.64 161.7 L 162.4 161.57 L 161.96 161.53 L 161.51 161.77 L 161.62 162.1 L 161.01 162.47 L 160.95 162.66 L 161.02 163.14 L 161.24 163.34 L 160.95 163.55 L 160.7 163.59 L 160.85 163.74 L 160.79 163.86 L 159.51 163.71 L 159.2 163.39 L 159.06 163.41 L 158.7 163.99 L 158.76 164.35 L 158.43 164.78 L 158.09 164.57 L 158.05 164.23 L 157.9 164.05 L 157.6 164.15 L 157.56 164.27 L 157.12 164.56 L 157.07 164.71 L 156.61 164.49 L 155.76 164.81 L 155.62 164.79 L 155.53 164.57 L 155.2 164.55 L 154.94 164.62 L 154.92 164.8 L 154.69 165.03 L 154.48 165.07 L 154.06 164.57 L 153.59 164.57 L 153.29 164.4 L 153.35 164.11 L 153.14 164.01 L 153.13 163.75 L 153.43 163.51 L 153.33 163.44 L 153.02 163.59 L 152.73 163.4 L 152.36 163.41 L 151.87 163.63 L 151.78 163.38 L 151.29 163.48 L 151.24 163.33 L 151.37 163.13 L 151.3 162.95 L 150.67 162.96 L 150.33 162.59 L 150.35 162.42 L 150.07 162.28 L 150.05 162.11 L 149.63 161.98 L 149.37 162.02 L 149.14 162.24 L 148.89 162.26 L 148.78 162.58 L 148.39 162.62 L 148.33 162.73 L 147.99 162.65 L 148.02 162.55 L 147.74 161.18 L 147.93 160.43 L 148.2 160.15 L 148.44 159.56 L 148.72 159.34 L 148.49 159.02 L 148.66 157.87 L 148.45 157.7 L 148.3 157.71 L 147.81 157.68 L 147.9 157.86 L 147.67 158.02 L 147.69 158.18 L 147.45 158.33 L 147.13 157.93 L 147.15 157.81 L 146.95 157.68 L 146.75 157.76 L 146.7 157.95 L 146.69 158.12 L 146.84 158.23 L 146.58 158.43 L 146.44 158.26 L 146.26 158.28 L 145.85 158.37 L 145.35 158.64 L 144.7 158.54 L 144.6 158.26 L 144.35 158.15 L 144.16 158.15 L 143.94 158.32 L 142.83 157.93 L 142.58 158.03 L 141.73 157.97 L 141.26 157.57 L 140.83 156.83 L 140.41 156.42 L 140.28 156.15 L 140.31 155.93 L 140.09 156.14 L 139.95 156.14 L 139.13 155.66 L 138.8 155.64 L 138.39 155.94 L 137.8 155.93 L 137.65 156.15 L 137.65 156.52 L 137.53 156.71 L 137.15 156.89 L 136.84 157.17 L 136.2 157.31 L 135.91 157.58 L 135.12 157.66 L 134.28 157.97 L 134.06 157.82 L 133.46 156.89 L 133.43 156.2 L 133.62 155.65 L 133.05 155.04 L 132.69 155.01 L 132.57 155.09 L 132.06 155.73 L 131.45 155.86 L 131.08 155.77 L 130.87 155.55 L 130.71 155.1 L 130.69 154.69 L 130.82 154.31 L 130.06 153.78 L 130.08 153.31 L 130.36 152.93 L 129.99 152.77 L 129.36 152.69 L 128.87 152.39 L 128.91 152.09 L 129.72 151.26 L 129.43 150.96 L 129.01 150.83 L 128.15 150.06 L 128.25 149.83 L 128.06 149.18 L 128.36 149.25 L 128.54 149.5 L 128.95 149.16 L 129.1 148.95 L 128.98 148.38 L 129.53 147.74 L 129.37 147.18 L 129.07 147.3 L 128.78 147.06 L 128.46 146.34 L 128.45 146.02 L 128.74 145.87 L 128.56 145.51 L 128.63 145.2 L 128.83 145.01 L 129.27 144.93 L 129.2 144.6 L 128.91 144.47 L 128.81 144.3 L 128.84 143.88 L 129.22 143.59 L 129.2 143.34 L 129.04 143.33 L 128.95 143.48 L 128.68 143.48 L 128.56 143.31 L 128.74 143.18 L 128.77 142.87 L 128.41 142.72 L 128.33 142.25 L 128.08 142.26 L 127.77 142.28 L 127.61 142.1 L 126.76 142.14 L 126.73 142.37 L 126.5 142.28 L 125.92 143.0 L 125.8 143.59 L 125.08 143.43 L 125.33 143.8 L 125.01 143.81 L 124.71 144.04 L 124.25 144.04 L 124.18 144.41 L 124.5 144.95 L 124.04 144.91 L 123.93 144.84 L 123.78 144.35 L 123.47 144.26 L 120.97 145.62 L 120.56 145.49 L 120.12 145.06 L 119.33 145.09 L 118.57 144.5 L 118.48 144.33 L 118.85 143.99 L 118.8 143.91 L 118.18 143.84 L 117.46 143.08 L 116.54 142.58 L 116.06 141.97 L 114.97 142.04 L 114.76 142.15 L 114.39 143.06 L 113.98 143.16 L 113.78 143.1 L 113.31 142.64 L 112.32 142.51 L 111.7 142.06 L 111.51 142.01 L 111.25 142.19 L 110.89 142.21 L 110.75 142.35 L 110.65 142.58 L 110.82 142.84 L 110.67 143.0 L 110.61 143.37 L 110.02 143.24 L 110.11 142.83 L 110.03 142.79 L 109.8 142.82 L 109.75 143.08 L 109.56 143.07 L 108.59 142.73 L 108.29 142.88 L 108.29 143.12 L 108.05 143.18 L 107.8 142.69 L 107.06 143.22 L 106.31 143.34 L 105.92 143.67 L 105.54 143.6 L 105.38 143.8 L 105.42 143.89 L 105.31 143.94 L 104.9 143.95 L 104.54 143.78 L 104.59 143.6 L 104.46 143.42 L 104.13 143.52 L 104.01 143.77 L 103.37 143.65 L 102.7 143.21 L 102.37 143.25 L 102.31 143.37 L 101.26 142.94 L 101.07 143.04 L 100.78 143.02 L 100.82 142.93 L 100.64 142.72 L 100.44 142.64 L 100.33 142.72 L 100.08 142.49 L 99.82 143.02 L 99.7 143.14 L 99.61 143.09 L 99.38 142.98 L 98.96 143.1 L 98.54 143.12 L 97.64 143.72 L 96.75 143.29 L 96.29 143.22 L 95.64 143.35 L 95.11 143.73 L 94.93 144.23 L 94.79 144.36 L 94.48 144.27 L 93.66 143.67 L 93.01 143.43 L 92.67 143.11 L 92.54 142.8 L 92.39 142.9 L 92.02 142.84 L 91.93 143.0 L 91.83 143.0 L 91.8 142.74 L 91.17 142.98 L 91.23 142.66 L 91.16 142.41 L 90.59 142.34 L 90.45 142.44 L 90.57 142.57 L 90.89 142.63 L 90.71 142.72 L 90.73 142.85 L 90.93 142.98 L 90.77 143.15 L 90.62 143.08 L 90.2 142.76 L 90.16 142.56 L 89.96 142.73 L 89.29 142.19 L 88.99 142.16 L 88.91 141.81 L 88.62 141.65 L 88.71 141.19 L 88.55 140.87 L 88.16 140.86 L 87.93 140.96 L 87.62 141.35 L 87.33 141.41 L 87.2 141.42 L 87.14 141.2 L 86.47 140.61 L 85.94 139.81 L 84.46 140.14 L 84.03 139.92 L 83.79 139.46 L 83.59 139.36 L 82.92 139.41 L 81.3 138.55 L 80.43 137.73 L 79.22 137.35 L 78.66 137.69 L 78.54 137.56 L 78.57 137.23 L 78.52 137.0 L 77.99 137.17 L 77.64 137.59 L 77.02 137.99 L 76.6 137.82 L 76.03 137.33 L 75.8 136.87 L 75.8 136.54 L 75.48 136.07 L 74.58 135.56 L 74.4 135.33 L 74.48 135.17 L 74.43 135.03 L 73.64 134.89 L 73.36 134.7 L 73.39 134.62 L 73.78 134.6 L 74.21 134.74 L 74.4 134.48 L 74.5 134.08 L 74.26 133.7 L 74.11 134.04 L 73.83 133.99 L 73.86 134.19 L 73.75 134.26 L 73.12 134.17 L 72.3 132.39 L 71.15 132.1 L 70.25 131.66 L 70.16 131.53 L 70.18 130.87 L 69.93 130.59 L 69.33 131.07 L 69.21 131.07 L 69.12 130.89 L 69.21 130.36 L 69.04 129.97 L 69.29 129.37 L 69.64 129.18 L 69.78 128.98 L 69.42 128.16 L 68.99 127.84 L 69.14 127.73 L 68.96 127.44 L 68.46 127.3 L 67.76 127.41 L 67.35 127.29 L 67.02 127.45 L 66.9 127.37 L 66.9 127.14 L 67.96 126.63 L 67.79 126.11 L 67.45 126.14 L 67.46 125.59 L 67.05 125.37 L 66.73 125.39 L 66.39 125.05 L 66.27 124.52 L 66.07 124.66 L 65.6 124.11 L 65.37 123.99 L 65.24 123.96 L 64.86 124.2 L 64.57 124.61 L 64.14 124.67 L 64.32 124.34 L 64.58 124.18 L 64.73 123.92 L 64.7 123.74 L 63.68 123.14 L 62.87 122.18 L 62.94 121.27 L 63.45 121.09 L 63.44 120.93 L 63.2 120.74 L 63.27 120.6 L 63.63 120.56 L 63.94 120.34 L 63.81 119.87 L 63.89 119.38 L 63.56 118.94 L 63.54 118.62 L 63.19 117.94 L 63.76 117.58 L 63.91 117.14 L 63.85 116.22 L 63.4 115.65 L 63.29 115.37 L 63.45 114.95 L 63.34 114.46 L 63.08 114.25 L 62.39 113.95 L 62.16 113.71 L 61.62 113.44 L 60.45 113.26 L 60.08 112.68 L 59.28 112.29 L 59.12 111.9 L 59.05 111.0 L 58.87 110.74 L 58.54 109.89 L 58.14 109.59 L 57.97 109.26 L 56.93 109.21 L 56.24 108.39 L 55.18 107.95 L 54.56 108.13 L 54.35 108.07 L 53.94 107.89 L 53.81 107.56 L 53.58 107.18 L 53.66 106.88 L 53.77 106.75 L 54.33 106.63 L 54.39 106.18 L 55.36 105.93 L 55.57 105.63 L 55.49 105.42 L 54.92 105.04 L 54.86 104.43 L 54.67 104.35 L 54.26 103.83 L 53.61 103.94 L 53.41 103.74 L 53.32 103.0 L 53.57 102.65 L 53.45 102.1 L 54.44 101.38 L 54.45 101.17 L 54.78 100.68 L 54.74 100.42 L 54.55 100.34 L 53.86 100.22 L 53.33 99.87 L 52.84 99.87 L 52.26 99.31 L 51.53 99.26 L 50.99 98.86 L 50.15 98.76 L 49.98 98.66 L 49.57 97.83 L 49.65 97.66 L 50.2 97.52 L 50.58 97.02 L 51.05 96.84 L 51.37 96.52 L 51.25 96.05 L 50.84 95.52 L 50.99 94.84 L 50.9 94.65 L 50.23 94.81 L 49.69 94.76 L 49.2 94.3 L 49.04 93.73 L 48.14 92.42 L 48.05 92.16 L 48.0 91.8 L 48.76 91.35 L 48.99 91.32 L 49.06 91.17 L 49.06 91.04 L 48.6 91.15 L 48.13 91.03 L 48.27 90.75 L 48.33 90.23 L 48.9 90.5 L 49.18 90.53 L 49.92 90.24 L 50.63 89.79 L 52.16 90.63 L 54.0 89.95 L 54.99 90.42 L 55.38 90.49 L 55.56 90.41 L 55.87 89.88 L 56.17 90.06 L 56.57 89.49 L 57.27 88.93 L 57.69 88.91 L 58.02 89.04 L 58.96 89.63 L 59.28 89.48 L 59.53 89.18 L 59.96 89.24 L 60.6 88.74 L 60.96 88.23 L 61.12 87.88 L 61.18 87.06 L 61.95 87.08 L 62.18 87.3 L 62.27 87.67 L 62.45 87.76 L 63.91 86.94 L 64.43 86.7 L 65.16 86.74 L 65.63 86.59 L 66.56 85.69 L 66.83 85.37 L 67.24 85.26 L 68.04 85.38 L 68.66 85.68 L 69.38 85.15 L 69.78 85.28 L 70.57 85.16 L 71.33 84.78 L 72.0 85.1 L 72.46 85.14 L 72.76 85.05 L 73.77 84.61 L 74.05 84.61 L 74.31 84.76 L 75.14 84.72 L 76.14 84.13 L 76.76 84.32 L 76.9 84.33 L 77.2 84.02 L 77.48 83.38 L 77.85 83.24 L 78.16 82.57 L 78.4 82.38 L 78.66 82.18 L 79.34 81.93 L 79.38 81.55 L 79.23 81.05 L 79.3 80.94 L 79.69 80.91 L 81.0 80.39 L 81.52 80.31 L 81.91 80.0 L 82.39 79.99 L 82.68 79.16 L 82.98 79.0 L 86.01 78.78 L 86.52 79.05 L 87.41 79.14 L 87.75 79.54 L 87.91 79.9 L 88.43 79.52 L 88.54 79.19 L 88.37 78.66 L 88.64 77.4 L 88.66 76.71 L 88.2 76.43 L 88.15 76.28 L 88.3 76.03 L 88.78 75.68 L 88.93 75.27 L 88.47 74.4 L 88.48 74.08 L 88.67 73.99 L 89.55 74.29 L 90.15 74.24 L 91.66 74.62 L 92.05 74.61 L 91.96 75.01 L 92.24 75.21 L 93.11 75.01 L 93.91 74.67 L 94.1 74.86 L 93.87 75.43 L 94.03 75.53 L 95.61 75.47 L 96.0 75.27 L 96.39 74.86 L 96.57 74.83 L 97.86 75.33 L 98.94 75.3 L 99.18 75.49 L 99.8 75.41 L 100.19 75.64 L 100.51 75.7 L 100.69 75.45 L 101.8 75.46 L 102.0 75.21 L 102.28 75.21 L 102.33 75.02 L 101.84 74.9 L 101.75 74.71 L 102.01 74.26 L 102.28 74.58 L 102.55 74.58 L 102.61 74.82 L 102.91 75.04 L 103.3 75.17 L 103.64 75.55 L 103.88 75.56 L 103.79 75.87 L 103.92 76.27 L 104.02 76.24 L 104.14 75.85 L 104.34 75.71 L 105.12 75.87 L 105.59 75.44 L 105.59 75.0 L 105.89 74.91 L 106.03 75.07 L 106.24 75.05 L 106.52 74.67 L 107.06 74.63 L 107.71 74.88 L 108.27 74.96 L 109.17 74.77 L 109.36 74.44 L 109.5 73.84 L 110.62 73.77 L 110.87 73.47 L 110.61 73.24 L 110.72 72.34 L 111.22 72.13 L 111.61 72.07 L 112.79 72.49 L 113.23 72.75 L 113.68 72.77 L 114.04 72.45 L 114.22 72.38 L 114.3 72.21 L 114.34 71.92 L 114.89 71.37 L 114.86 70.87 L 115.23 70.91 L 115.36 70.65 L 115.86 70.2 L 116.66 70.12 L 118.02 70.6 L 118.1 70.5 L 117.92 70.21 L 118.11 69.91 L 117.98 69.62 L 118.04 69.36 L 119.23 69.43 L 119.67 69.23 L 119.93 68.95 L 120.41 68.55 L 121.54 68.6 L 122.72 68.09 L 122.95 67.65 L 122.95 67.24 L 123.5 66.72 L 123.9 66.02 L 123.98 65.82 L 123.91 65.48 L 124.0 65.3 L 124.29 65.29 L 125.23 65.72 L 125.46 65.72 L 125.77 65.56 L 125.61 64.96 L 125.32 64.54 L 125.32 64.11 L 124.89 63.17 L 124.86 63.0 L 125.08 62.64 L 125.16 62.26 L 124.61 61.36 L 124.65 61.15 L 124.85 61.04 L 125.4 61.06 L 125.74 60.91 L 126.16 61.13 L 126.49 60.94 L 126.53 60.79 L 126.13 60.24 L 126.07 60.0 L 126.47 58.88 L 126.31 57.75 L 126.05 57.48 L 126.08 57.18 L 126.21 57.08 L 127.05 57.24 L 127.23 57.23 L 127.44 57.01 L 127.35 56.76 L 127.1 56.55 L 127.53 56.37 L 127.44 56.27 L 126.85 56.2 L 126.61 56.08 L 126.64 55.88 L 127.17 55.54 L 127.19 55.38 L 126.89 54.92 L 126.82 54.54 L 126.51 54.37 L 126.63 54.24 L 126.88 54.21 L 126.45 53.97 L 126.68 53.68 L 127.2 53.91 L 127.65 53.78 L 127.64 53.36 L 127.51 53.27 L 127.12 53.29 L 126.96 53.07 L 126.54 52.96 L 126.66 52.67 L 127.49 52.58 L 127.52 52.43 L 126.89 52.14 L 127.43 52.08 L 127.61 51.93 L 127.18 51.66 L 127.48 51.3 L 127.52 51.07 L 127.42 50.88 L 127.69 50.59 L 127.76 49.86 L 128.15 49.63 L 128.42 49.18 L 128.24 48.78 L 128.28 48.33 L 128.57 48.25 L 128.83 48.0 L 130.09 48.87 Z M 128.91 145.55 L 129.17 145.69 L 129.32 145.43 L 129.0 145.15 L 128.88 145.23 L 128.91 145.55 Z" />
  <text class="province-label" x="125.78" y="86.72">河南</text>
</svg>
